<mxfile host="app.diagrams.net" agent="Mozilla/5.0 (Windows NT 10.0; Win64; x64) AppleWebKit/537.36 (KHTML, like Gecko) Chrome/128.0.0.0 Safari/537.36" version="26.0.16">
  <diagram name="第 1 页" id="7iHTIjH9UsgkO-GFbmFN">
    <mxGraphModel dx="1342" dy="697" grid="0" gridSize="10" guides="1" tooltips="1" connect="1" arrows="1" fold="1" page="1" pageScale="1" pageWidth="827" pageHeight="1169" math="0" shadow="0">
      <root>
        <mxCell id="0" />
        <mxCell id="1" parent="0" />
        <mxCell id="kOk_MV4UEQmLWu5_Jb4k-12" style="edgeStyle=orthogonalEdgeStyle;rounded=0;orthogonalLoop=1;jettySize=auto;html=1;" edge="1" parent="1" source="kOk_MV4UEQmLWu5_Jb4k-1" target="kOk_MV4UEQmLWu5_Jb4k-3">
          <mxGeometry relative="1" as="geometry" />
        </mxCell>
        <mxCell id="kOk_MV4UEQmLWu5_Jb4k-1" value="&lt;font style=&quot;font-size: 17px;&quot;&gt;Browser&lt;/font&gt;&lt;div&gt;&lt;br&gt;&lt;/div&gt;" style="shape=mxgraph.cisco.computers_and_peripherals.web_browser;html=1;pointerEvents=1;dashed=0;fillColor=#036897;strokeColor=#ffffff;strokeWidth=2;verticalLabelPosition=bottom;verticalAlign=top;align=center;outlineConnect=0;" vertex="1" parent="1">
          <mxGeometry x="70" y="237" width="62" height="64" as="geometry" />
        </mxCell>
        <mxCell id="kOk_MV4UEQmLWu5_Jb4k-3" value="&lt;font style=&quot;font-size: 17px;&quot;&gt;Firewall&lt;/font&gt;&lt;div&gt;&lt;div&gt;&lt;br style=&quot;background-color: rgb(251, 251, 251);&quot;&gt;&lt;/div&gt;&lt;/div&gt;" style="image;sketch=0;aspect=fixed;html=1;points=[];align=center;fontSize=12;image=img/lib/mscae/Web_App_Firewall.svg;" vertex="1" parent="1">
          <mxGeometry x="200" y="234" width="70" height="70" as="geometry" />
        </mxCell>
        <mxCell id="kOk_MV4UEQmLWu5_Jb4k-15" style="edgeStyle=orthogonalEdgeStyle;rounded=0;orthogonalLoop=1;jettySize=auto;html=1;entryX=0;entryY=0.385;entryDx=0;entryDy=0;entryPerimeter=0;" edge="1" parent="1" source="kOk_MV4UEQmLWu5_Jb4k-5" target="kOk_MV4UEQmLWu5_Jb4k-6">
          <mxGeometry relative="1" as="geometry">
            <mxPoint x="360" y="160" as="targetPoint" />
          </mxGeometry>
        </mxCell>
        <mxCell id="kOk_MV4UEQmLWu5_Jb4k-5" value="" style="sketch=0;points=[[0,0,0],[0.25,0,0],[0.5,0,0],[0.75,0,0],[1,0,0],[0,1,0],[0.25,1,0],[0.5,1,0],[0.75,1,0],[1,1,0],[0,0.25,0],[0,0.5,0],[0,0.75,0],[1,0.25,0],[1,0.5,0],[1,0.75,0]];outlineConnect=0;fontColor=#232F3E;fillColor=#7AA116;strokeColor=#ffffff;dashed=0;verticalLabelPosition=bottom;verticalAlign=top;align=center;html=1;fontSize=12;fontStyle=0;aspect=fixed;shape=mxgraph.aws4.resourceIcon;resIcon=mxgraph.aws4.iot_sitewise;rotation=-90;" vertex="1" parent="1">
          <mxGeometry x="320" y="230" width="78" height="78" as="geometry" />
        </mxCell>
        <mxCell id="kOk_MV4UEQmLWu5_Jb4k-6" value="" style="sketch=0;points=[[0,0,0],[0.25,0,0],[0.5,0,0],[0.75,0,0],[1,0,0],[0,1,0],[0.25,1,0],[0.5,1,0],[0.75,1,0],[1,1,0],[0,0.25,0],[0,0.5,0],[0,0.75,0],[1,0.25,0],[1,0.5,0],[1,0.75,0]];outlineConnect=0;fontColor=#232F3E;fillColor=#7AA116;strokeColor=#ffffff;dashed=0;verticalLabelPosition=bottom;verticalAlign=top;align=center;html=1;fontSize=12;fontStyle=0;aspect=fixed;shape=mxgraph.aws4.resourceIcon;resIcon=mxgraph.aws4.internet_of_things;" vertex="1" parent="1">
          <mxGeometry x="480" y="110" width="78" height="78" as="geometry" />
        </mxCell>
        <mxCell id="kOk_MV4UEQmLWu5_Jb4k-7" value="" style="sketch=0;points=[[0,0,0],[0.25,0,0],[0.5,0,0],[0.75,0,0],[1,0,0],[0,1,0],[0.25,1,0],[0.5,1,0],[0.75,1,0],[1,1,0],[0,0.25,0],[0,0.5,0],[0,0.75,0],[1,0.25,0],[1,0.5,0],[1,0.75,0]];outlineConnect=0;fontColor=#232F3E;fillColor=#7AA116;strokeColor=#ffffff;dashed=0;verticalLabelPosition=bottom;verticalAlign=top;align=center;html=1;fontSize=12;fontStyle=0;aspect=fixed;shape=mxgraph.aws4.resourceIcon;resIcon=mxgraph.aws4.aurora;fontFamily=Helvetica;" vertex="1" parent="1">
          <mxGeometry x="650" y="230" width="78" height="78" as="geometry" />
        </mxCell>
        <mxCell id="kOk_MV4UEQmLWu5_Jb4k-8" value="" style="sketch=0;points=[[0,0,0],[0.25,0,0],[0.5,0,0],[0.75,0,0],[1,0,0],[0,1,0],[0.25,1,0],[0.5,1,0],[0.75,1,0],[1,1,0],[0,0.25,0],[0,0.5,0],[0,0.75,0],[1,0.25,0],[1,0.5,0],[1,0.75,0]];outlineConnect=0;fontColor=#232F3E;fillColor=#7AA116;strokeColor=#ffffff;dashed=0;verticalLabelPosition=bottom;verticalAlign=top;align=center;html=1;fontSize=12;fontStyle=0;aspect=fixed;shape=mxgraph.aws4.resourceIcon;resIcon=mxgraph.aws4.internet_of_things;" vertex="1" parent="1">
          <mxGeometry x="480" y="230" width="78" height="78" as="geometry" />
        </mxCell>
        <mxCell id="kOk_MV4UEQmLWu5_Jb4k-11" value="&lt;div style=&quot;forced-color-adjust: none;&quot;&gt;&lt;span style=&quot;font-size: 17px;&quot;&gt;Nginx&lt;/span&gt;&lt;/div&gt;" style="text;whiteSpace=wrap;html=1;" vertex="1" parent="1">
          <mxGeometry x="330" y="301" width="100" height="90" as="geometry" />
        </mxCell>
        <mxCell id="kOk_MV4UEQmLWu5_Jb4k-19" style="edgeStyle=orthogonalEdgeStyle;rounded=0;orthogonalLoop=1;jettySize=auto;html=1;" edge="1" parent="1" source="kOk_MV4UEQmLWu5_Jb4k-9">
          <mxGeometry relative="1" as="geometry">
            <mxPoint x="690" y="310" as="targetPoint" />
          </mxGeometry>
        </mxCell>
        <mxCell id="kOk_MV4UEQmLWu5_Jb4k-9" value="" style="sketch=0;points=[[0,0,0],[0.25,0,0],[0.5,0,0],[0.75,0,0],[1,0,0],[0,1,0],[0.25,1,0],[0.5,1,0],[0.75,1,0],[1,1,0],[0,0.25,0],[0,0.5,0],[0,0.75,0],[1,0.25,0],[1,0.5,0],[1,0.75,0]];outlineConnect=0;fontColor=#232F3E;fillColor=#7AA116;strokeColor=#ffffff;dashed=0;verticalLabelPosition=bottom;verticalAlign=top;align=center;html=1;fontSize=12;fontStyle=0;aspect=fixed;shape=mxgraph.aws4.resourceIcon;resIcon=mxgraph.aws4.internet_of_things;" vertex="1" parent="1">
          <mxGeometry x="480" y="360" width="78" height="78" as="geometry" />
        </mxCell>
        <mxCell id="kOk_MV4UEQmLWu5_Jb4k-13" style="edgeStyle=orthogonalEdgeStyle;rounded=0;orthogonalLoop=1;jettySize=auto;html=1;entryX=0.5;entryY=0;entryDx=0;entryDy=0;entryPerimeter=0;" edge="1" parent="1" source="kOk_MV4UEQmLWu5_Jb4k-3" target="kOk_MV4UEQmLWu5_Jb4k-5">
          <mxGeometry relative="1" as="geometry" />
        </mxCell>
        <mxCell id="kOk_MV4UEQmLWu5_Jb4k-14" style="edgeStyle=orthogonalEdgeStyle;rounded=0;orthogonalLoop=1;jettySize=auto;html=1;entryX=0;entryY=0.5;entryDx=0;entryDy=0;entryPerimeter=0;" edge="1" parent="1" source="kOk_MV4UEQmLWu5_Jb4k-5" target="kOk_MV4UEQmLWu5_Jb4k-8">
          <mxGeometry relative="1" as="geometry" />
        </mxCell>
        <mxCell id="kOk_MV4UEQmLWu5_Jb4k-16" style="edgeStyle=orthogonalEdgeStyle;rounded=0;orthogonalLoop=1;jettySize=auto;html=1;entryX=0;entryY=0.5;entryDx=0;entryDy=0;entryPerimeter=0;" edge="1" parent="1" source="kOk_MV4UEQmLWu5_Jb4k-5" target="kOk_MV4UEQmLWu5_Jb4k-9">
          <mxGeometry relative="1" as="geometry" />
        </mxCell>
        <mxCell id="kOk_MV4UEQmLWu5_Jb4k-17" style="edgeStyle=orthogonalEdgeStyle;rounded=0;orthogonalLoop=1;jettySize=auto;html=1;entryX=0.5;entryY=0;entryDx=0;entryDy=0;entryPerimeter=0;" edge="1" parent="1" source="kOk_MV4UEQmLWu5_Jb4k-6" target="kOk_MV4UEQmLWu5_Jb4k-7">
          <mxGeometry relative="1" as="geometry" />
        </mxCell>
        <mxCell id="kOk_MV4UEQmLWu5_Jb4k-18" style="edgeStyle=orthogonalEdgeStyle;rounded=0;orthogonalLoop=1;jettySize=auto;html=1;entryX=0;entryY=0.5;entryDx=0;entryDy=0;entryPerimeter=0;" edge="1" parent="1" source="kOk_MV4UEQmLWu5_Jb4k-8" target="kOk_MV4UEQmLWu5_Jb4k-7">
          <mxGeometry relative="1" as="geometry" />
        </mxCell>
        <mxCell id="kOk_MV4UEQmLWu5_Jb4k-20" value="&lt;div style=&quot;forced-color-adjust: none;&quot;&gt;&lt;span style=&quot;font-size: 17px;&quot;&gt;DB&lt;/span&gt;&lt;/div&gt;" style="text;whiteSpace=wrap;html=1;" vertex="1" parent="1">
          <mxGeometry x="700" y="308" width="100" height="90" as="geometry" />
        </mxCell>
        <mxCell id="kOk_MV4UEQmLWu5_Jb4k-21" value="&lt;div style=&quot;forced-color-adjust: none;&quot;&gt;&lt;p class=&quot;MsoNormal&quot;&gt;&lt;span style=&quot;mso-spacerun:&#39;yes&#39;;font-family:微软雅黑;font-size:12.0000pt;&lt;br/&gt;mso-font-kerning:1.0000pt;&quot;&gt;eMSP&lt;/span&gt;&lt;/p&gt;&lt;/div&gt;" style="text;whiteSpace=wrap;html=1;" vertex="1" parent="1">
          <mxGeometry x="490" y="180" width="100" height="90" as="geometry" />
        </mxCell>
        <mxCell id="kOk_MV4UEQmLWu5_Jb4k-22" value="&lt;div style=&quot;forced-color-adjust: none;&quot;&gt;&lt;p class=&quot;MsoNormal&quot;&gt;&lt;span style=&quot;mso-spacerun:&#39;yes&#39;;font-family:微软雅黑;font-size:12.0000pt;&lt;br/&gt;mso-font-kerning:1.0000pt;&quot;&gt;eMSP&lt;/span&gt;&lt;/p&gt;&lt;/div&gt;" style="text;whiteSpace=wrap;html=1;" vertex="1" parent="1">
          <mxGeometry x="490" y="304" width="100" height="90" as="geometry" />
        </mxCell>
        <mxCell id="kOk_MV4UEQmLWu5_Jb4k-23" value="&lt;div style=&quot;forced-color-adjust: none;&quot;&gt;&lt;p class=&quot;MsoNormal&quot;&gt;&lt;span style=&quot;mso-spacerun:&#39;yes&#39;;font-family:微软雅黑;font-size:12.0000pt;&lt;br/&gt;mso-font-kerning:1.0000pt;&quot;&gt;eMSP&lt;/span&gt;&lt;/p&gt;&lt;/div&gt;" style="text;whiteSpace=wrap;html=1;" vertex="1" parent="1">
          <mxGeometry x="490" y="438" width="100" height="90" as="geometry" />
        </mxCell>
      </root>
    </mxGraphModel>
  </diagram>
</mxfile>
